<?xml version="1.0" encoding="UTF-8"?>
<svg width="800" height="800" viewBox="0 0 800 800" fill="none" xmlns="http://www.w3.org/2000/svg" role="img" aria-labelledby="title desc">
  <title id="title">新能源接入解决方案配图</title>
  <desc id="desc">深蓝科技风插画：风光储接入与并网管理、功率预测的可视化示意</desc>

  <defs>
    <linearGradient id="bg" x1="0" y1="0" x2="800" y2="800" gradientUnits="userSpaceOnUse">
      <stop offset="0" stop-color="#1A1F3A"/>
      <stop offset="1" stop-color="#252B4A"/>
    </linearGradient>
    <pattern id="grid" width="40" height="40" patternUnits="userSpaceOnUse">
      <path d="M40 0H0V40" stroke="rgba(255,255,255,0.06)" stroke-width="1"/>
    </pattern>
    <radialGradient id="glowCyan" cx="0" cy="0" r="1" gradientUnits="userSpaceOnUse" gradientTransform="translate(220 300) rotate(90) scale(240 280)">
      <stop stop-color="rgba(100,255,218,0.16)"/>
      <stop offset="1" stop-color="rgba(100,255,218,0)"/>
    </radialGradient>
    <radialGradient id="glowBlue" cx="0" cy="0" r="1" gradientUnits="userSpaceOnUse" gradientTransform="translate(600 480) rotate(90) scale(260 320)">
      <stop stop-color="rgba(59,130,246,0.18)"/>
      <stop offset="1" stop-color="rgba(59,130,246,0)"/>
    </radialGradient>
    <filter id="softGlow" x="-30%" y="-30%" width="160%" height="160%">
      <feGaussianBlur in="SourceGraphic" stdDeviation="5" result="blur"/>
      <feColorMatrix in="blur" type="matrix"
        values="1 0 0 0 0
                0 1 0 0 0
                0 0 1 0 0
                0 0 0 0.55 0" result="glow"/>
      <feMerge>
        <feMergeNode in="glow"/>
        <feMergeNode in="SourceGraphic"/>
      </feMerge>
    </filter>
  </defs>

  <rect width="800" height="800" rx="20" fill="url(#bg)"/>
  <rect width="800" height="800" rx="20" fill="url(#grid)"/>
  <rect width="800" height="800" rx="20" fill="url(#glowCyan)"/>
  <rect width="800" height="800" rx="20" fill="url(#glowBlue)"/>

  <g opacity="0.92">
    <text x="48" y="56" fill="rgba(229,229,229,0.92)" font-family="ui-monospace, SFMono-Regular, Menlo, Monaco, Consolas, monospace" font-size="16" letter-spacing="2">
      NEW ENERGY INTEGRATION
    </text>
    <text x="48" y="80" fill="rgba(153,153,153,0.92)" font-family="system-ui, -apple-system, Segoe UI, Roboto, Helvetica, Arial" font-size="14">
      新能源监测 · 并网管理 · 功率预测 · 调度优化
    </text>
  </g>

  <!-- Grid link -->
  <g stroke-linecap="round" stroke-linejoin="round" opacity="0.95">
    <path d="M160 300C280 220 380 200 480 280C580 360 640 380 700 300" stroke="rgba(100,255,218,0.55)" stroke-width="2.5"/>
    <path d="M160 300C280 220 380 200 480 280C580 360 640 380 700 300" stroke="rgba(100,255,218,0.18)" stroke-width="8" filter="url(#softGlow)"/>
    <path d="M300 260C280 360 250 420 220 480" stroke="rgba(59,130,246,0.55)" stroke-width="2"/>
    <path d="M440 280C440 360 440 400 440 480" stroke="rgba(59,130,246,0.55)" stroke-width="2"/>
    <path d="M550 320C580 360 620 400 660 480" stroke="rgba(59,130,246,0.55)" stroke-width="2"/>
  </g>

  <!-- Nodes -->
  <g filter="url(#softGlow)">
    <circle cx="160" cy="300" r="10" fill="#64FFDA"/>
    <circle cx="300" cy="260" r="8" fill="#64FFDA"/>
    <circle cx="440" cy="280" r="8" fill="#64FFDA"/>
    <circle cx="550" cy="320" r="8" fill="#64FFDA"/>
    <circle cx="700" cy="300" r="10" fill="#64FFDA"/>
    <circle cx="700" cy="300" r="18" fill="rgba(100,255,218,0.14)"/>
  </g>

  <!-- Wind turbine card -->
  <g transform="translate(180 520)">
    <rect x="0" y="0" width="88" height="88" rx="14" fill="rgba(255,255,255,0.06)" stroke="rgba(255,255,255,0.14)"/>
    <path d="M44 22V66" stroke="#64FFDA" stroke-width="2.5" stroke-linecap="round"/>
    <path d="M44 32L24 44" stroke="#3B82F6" stroke-width="2.5" stroke-linecap="round"/>
    <path d="M44 32L64 44" stroke="#3B82F6" stroke-width="2.5" stroke-linecap="round"/>
    <path d="M44 32L44 14" stroke="#3B82F6" stroke-width="2.5" stroke-linecap="round"/>
    <circle cx="44" cy="32" r="4" fill="#64FFDA"/>
    <text x="10" y="112" fill="rgba(229,229,229,0.85)" font-family="system-ui, -apple-system, Segoe UI, Roboto, Helvetica, Arial" font-size="13">风电接入</text>
  </g>

  <!-- Solar panel card -->
  <g transform="translate(400 540)">
    <rect x="0" y="0" width="88" height="72" rx="14" fill="rgba(255,255,255,0.06)" stroke="rgba(255,255,255,0.14)"/>
    <path d="M16 20H72V48H16V20Z" fill="rgba(59,130,246,0.12)" stroke="#3B82F6" stroke-width="2"/>
    <path d="M16 28H72M16 36H72" stroke="rgba(255,255,255,0.18)" stroke-width="2"/>
    <path d="M30 20V48M48 20V48M66 20V48" stroke="rgba(255,255,255,0.18)" stroke-width="2"/>
    <path d="M44 48V60" stroke="#64FFDA" stroke-width="2.5" stroke-linecap="round"/>
    <path d="M30 60H58" stroke="#64FFDA" stroke-width="2.5" stroke-linecap="round"/>
    <text x="16" y="96" fill="rgba(229,229,229,0.85)" font-family="system-ui, -apple-system, Segoe UI, Roboto, Helvetica, Arial" font-size="13">光伏接入</text>
  </g>

  <!-- Forecast card -->
  <g transform="translate(600 520)">
    <rect x="0" y="0" width="100" height="72" rx="14" fill="rgba(255,255,255,0.06)" stroke="rgba(255,255,255,0.14)"/>
    <path d="M16 48L28 38L40 42L56 30L72 34L84 24" stroke="#64FFDA" stroke-width="2.5" fill="none" stroke-linecap="round" stroke-linejoin="round"/>
    <path d="M16 20H84" stroke="rgba(255,255,255,0.14)" stroke-width="2" stroke-linecap="round"/>
    <text x="10" y="96" fill="rgba(229,229,229,0.85)" font-family="system-ui, -apple-system, Segoe UI, Roboto, Helvetica, Arial" font-size="13">功率预测</text>
  </g>

  <!-- KPI pills -->
  <g font-family="ui-monospace, SFMono-Regular, Menlo, Monaco, Consolas, monospace" font-size="12">
    <g transform="translate(400 110)">
      <rect x="0" y="0" width="140" height="30" rx="999" fill="rgba(100,255,218,0.10)" stroke="rgba(100,255,218,0.35)"/>
      <text x="14" y="20" fill="rgba(229,229,229,0.92)">并网可视化</text>
    </g>
    <g transform="translate(552 110)">
      <rect x="0" y="0" width="150" height="30" rx="999" fill="rgba(59,130,246,0.10)" stroke="rgba(59,130,246,0.35)"/>
      <text x="14" y="20" fill="rgba(229,229,229,0.92)">预测误差（MAPE）</text>
    </g>
  </g>
  <g font-family="ui-monospace, SFMono-Regular, Menlo, Monaco, Consolas, monospace" font-size="12" transform="translate(48 110)">
    <rect x="0" y="0" width="120" height="30" rx="999" fill="rgba(255,255,255,0.06)" stroke="rgba(255,255,255,0.16)"/>
    <text x="14" y="20" fill="rgba(229,229,229,0.92)">调度联动</text>
  </g>

  <g opacity="0.92">
    <rect x="48" y="720" width="300" height="44" rx="12" fill="rgba(255,255,255,0.05)" stroke="rgba(255,255,255,0.14)"/>
    <text x="64" y="748" fill="rgba(229,229,229,0.92)" font-family="system-ui, -apple-system, Segoe UI, Roboto, Helvetica, Arial" font-size="14" font-weight="700">
      一张图看懂风光储“接入-预测-调度”
    </text>
  </g>
</svg>
