<?xml version="1.0" encoding="UTF-8"?>
<svg width="800" height="800" viewBox="0 0 800 800" fill="none" xmlns="http://www.w3.org/2000/svg" role="img" aria-labelledby="title desc">
  <title id="title">配电网智能化解决方案配图</title>
  <desc id="desc">深蓝科技风配电网拓扑：主站、馈线节点、台区与用户侧能流可视化</desc>

  <defs>
    <linearGradient id="bg" x1="0" y1="0" x2="800" y2="800" gradientUnits="userSpaceOnUse">
      <stop offset="0" stop-color="#1A1F3A"/>
      <stop offset="1" stop-color="#252B4A"/>
    </linearGradient>

    <radialGradient id="glowCyan" cx="0" cy="0" r="1" gradientUnits="userSpaceOnUse" gradientTransform="translate(200 260) rotate(90) scale(220 260)">
      <stop stop-color="rgba(100,255,218,0.20)"/>
      <stop offset="1" stop-color="rgba(100,255,218,0)"/>
    </radialGradient>

    <radialGradient id="glowBlue" cx="0" cy="0" r="1" gradientUnits="userSpaceOnUse" gradientTransform="translate(600 520) rotate(90) scale(240 280)">
      <stop stop-color="rgba(59,130,246,0.18)"/>
      <stop offset="1" stop-color="rgba(59,130,246,0)"/>
    </radialGradient>

    <filter id="softGlow" x="-30%" y="-30%" width="160%" height="160%">
      <feGaussianBlur in="SourceGraphic" stdDeviation="5" result="blur"/>
      <feColorMatrix in="blur" type="matrix"
        values="1 0 0 0 0
                0 1 0 0 0
                0 0 1 0 0
                0 0 0 0.55 0" result="glow"/>
      <feMerge>
        <feMergeNode in="glow"/>
        <feMergeNode in="SourceGraphic"/>
      </feMerge>
    </filter>

    <pattern id="grid" width="40" height="40" patternUnits="userSpaceOnUse">
      <path d="M40 0H0V40" stroke="rgba(255,255,255,0.06)" stroke-width="1"/>
    </pattern>
  </defs>

  <!-- Background -->
  <rect width="800" height="800" rx="20" fill="url(#bg)"/>
  <rect width="800" height="800" rx="20" fill="url(#grid)"/>
  <rect width="800" height="800" rx="20" fill="url(#glowCyan)"/>
  <rect width="800" height="800" rx="20" fill="url(#glowBlue)"/>

  <!-- Top label -->
  <g opacity="0.9">
    <text x="48" y="56" fill="rgba(229,229,229,0.92)" font-family="ui-monospace, SFMono-Regular, Menlo, Monaco, Consolas, monospace" font-size="16" letter-spacing="2">
      SMART DISTRIBUTION GRID
    </text>
    <text x="48" y="80" fill="rgba(153,153,153,0.92)" font-family="system-ui, -apple-system, Segoe UI, Roboto, Helvetica, Arial" font-size="14">
      拓扑可视 · 负荷预测 · 故障定位 · 电能质量
    </text>
  </g>

  <!-- Network lines -->
  <g stroke-linecap="round" stroke-linejoin="round" opacity="0.9">
    <!-- trunk -->
    <path d="M150 280C280 220 380 200 480 260C580 320 660 340 700 280" stroke="rgba(100,255,218,0.55)" stroke-width="2.5"/>
    <path d="M150 280C280 220 380 200 480 260C580 320 660 340 700 280" stroke="rgba(100,255,218,0.18)" stroke-width="8" filter="url(#softGlow)"/>

    <!-- feeders down -->
    <path d="M250 240C240 320 220 380 200 460" stroke="rgba(59,130,246,0.55)" stroke-width="2"/>
    <path d="M340 220C340 300 340 360 340 440" stroke="rgba(59,130,246,0.55)" stroke-width="2"/>
    <path d="M520 280C560 340 600 380 640 440" stroke="rgba(59,130,246,0.55)" stroke-width="2"/>

    <!-- feeders up -->
    <path d="M480 260C480 200 480 160 480 120" stroke="rgba(255,255,255,0.22)" stroke-width="2"/>
  </g>

  <!-- Nodes -->
  <g filter="url(#softGlow)">
    <!-- Main station -->
    <circle cx="150" cy="280" r="10" fill="#64FFDA"/>
    <circle cx="150" cy="280" r="18" fill="rgba(100,255,218,0.14)"/>
    <text x="138" y="310" fill="rgba(229,229,229,0.92)" font-family="system-ui, -apple-system, Segoe UI, Roboto, Helvetica, Arial" font-size="13">主站</text>

    <!-- Mid nodes -->
    <circle cx="250" cy="240" r="8" fill="#64FFDA"/>
    <circle cx="340" cy="220" r="8" fill="#64FFDA"/>
    <circle cx="480" cy="260" r="8" fill="#64FFDA"/>
    <circle cx="520" cy="280" r="8" fill="#64FFDA"/>
    <circle cx="700" cy="280" r="10" fill="#64FFDA"/>
    <text x="688" y="310" fill="rgba(229,229,229,0.92)" font-family="system-ui, -apple-system, Segoe UI, Roboto, Helvetica, Arial" font-size="13">调度</text>
  </g>

  <!-- Sub areas / devices -->
  <g>
    <!-- Transformer / cabinet icon -->
    <g transform="translate(180 480)">
      <rect x="0" y="0" width="70" height="76" rx="12" fill="rgba(255,255,255,0.06)" stroke="rgba(255,255,255,0.14)"/>
      <path d="M20 24H50M20 36H50M20 48H50" stroke="#64FFDA" stroke-width="2.5" stroke-linecap="round"/>
      <circle cx="20" cy="60" r="3" fill="#3B82F6"/>
      <circle cx="35" cy="60" r="3" fill="#3B82F6"/>
      <circle cx="50" cy="60" r="3" fill="#3B82F6"/>
      <text x="8" y="92" fill="rgba(229,229,229,0.85)" font-family="system-ui, -apple-system, Segoe UI, Roboto, Helvetica, Arial" font-size="13">台区/开关柜</text>
    </g>

    <!-- Load forecasting panel -->
    <g transform="translate(320 520)">
      <rect x="0" y="0" width="76" height="72" rx="12" fill="rgba(255,255,255,0.06)" stroke="rgba(255,255,255,0.14)"/>
      <path d="M14 48L26 38L36 42L50 28L58 32" stroke="#3B82F6" stroke-width="2.5" fill="none" stroke-linecap="round" stroke-linejoin="round"/>
      <path d="M14 20H58" stroke="rgba(255,255,255,0.14)" stroke-width="2" stroke-linecap="round"/>
      <text x="6" y="88" fill="rgba(229,229,229,0.85)" font-family="system-ui, -apple-system, Segoe UI, Roboto, Helvetica, Arial" font-size="13">负荷预测</text>
    </g>

    <!-- Fault location marker -->
    <g transform="translate(600 520)">
      <rect x="0" y="0" width="80" height="72" rx="12" fill="rgba(255,255,255,0.06)" stroke="rgba(255,255,255,0.14)"/>
      <path d="M40 18C48 18 54 24 54 32C54 46 40 58 40 58C40 58 26 46 26 32C26 24 32 18 40 18Z" fill="rgba(100,255,218,0.16)" stroke="#64FFDA" stroke-width="2"/>
      <circle cx="40" cy="32" r="5" fill="#64FFDA"/>
      <text x="6" y="88" fill="rgba(229,229,229,0.85)" font-family="system-ui, -apple-system, Segoe UI, Roboto, Helvetica, Arial" font-size="13">故障定位</text>
    </g>
  </g>

  <!-- KPI chips -->
  <g font-family="ui-monospace, SFMono-Regular, Menlo, Monaco, Consolas, monospace" font-size="12">
    <g transform="translate(400 110)">
      <rect x="0" y="0" width="120" height="30" rx="999" fill="rgba(100,255,218,0.10)" stroke="rgba(100,255,218,0.35)"/>
      <text x="14" y="20" fill="rgba(229,229,229,0.92)">SAIDI ↓ 12%</text>
    </g>
    <g transform="translate(532 110)">
      <rect x="0" y="0" width="140" height="30" rx="999" fill="rgba(59,130,246,0.10)" stroke="rgba(59,130,246,0.35)"/>
      <text x="14" y="20" fill="rgba(229,229,229,0.92)">故障定位 ≤ 3min</text>
    </g>
  </g>
  <g font-family="ui-monospace, SFMono-Regular, Menlo, Monaco, Consolas, monospace" font-size="12" transform="translate(48 110)">
    <rect x="0" y="0" width="130" height="30" rx="999" fill="rgba(255,255,255,0.06)" stroke="rgba(255,255,255,0.16)"/>
    <text x="14" y="20" fill="rgba(229,229,229,0.92)">电能质量合规</text>
  </g>

  <!-- Corner tag -->
  <g opacity="0.92">
    <rect x="48" y="720" width="280" height="44" rx="12" fill="rgba(255,255,255,0.05)" stroke="rgba(255,255,255,0.14)"/>
    <text x="64" y="748" fill="rgba(229,229,229,0.92)" font-family="system-ui, -apple-system, Segoe UI, Roboto, Helvetica, Arial" font-size="14" font-weight="700">
      一张图看懂配电网运行与风险
    </text>
  </g>
</svg>
