<?xml version="1.0" encoding="UTF-8"?>
<svg width="1200" height="675" viewBox="0 0 1200 675" fill="none" xmlns="http://www.w3.org/2000/svg" role="img" aria-labelledby="title desc">
  <title id="title">Data Collection Terminal Illustration</title>
  <desc id="desc">Deep blue tech-style illustration: Multi-sensor access, edge collection and data uplink visualization</desc>

  <defs>
    <linearGradient id="bg" x1="0" y1="0" x2="1200" y2="675" gradientUnits="userSpaceOnUse">
      <stop offset="0" stop-color="#1A1F3A"/>
      <stop offset="1" stop-color="#252B4A"/>
    </linearGradient>
    <pattern id="grid" width="48" height="48" patternUnits="userSpaceOnUse">
      <path d="M48 0H0V48" stroke="rgba(255,255,255,0.06)" stroke-width="1"/>
    </pattern>
    <radialGradient id="glowCyan" cx="0" cy="0" r="1" gradientUnits="userSpaceOnUse" gradientTransform="translate(320 360) rotate(90) scale(320 380)">
      <stop stop-color="rgba(100,255,218,0.16)"/>
      <stop offset="1" stop-color="rgba(100,255,218,0)"/>
    </radialGradient>
    <radialGradient id="glowBlue" cx="0" cy="0" r="1" gradientUnits="userSpaceOnUse" gradientTransform="translate(900 260) rotate(90) scale(320 420)">
      <stop stop-color="rgba(59,130,246,0.18)"/>
      <stop offset="1" stop-color="rgba(59,130,246,0)"/>
    </radialGradient>
    <filter id="softGlow" x="-30%" y="-30%" width="160%" height="160%">
      <feGaussianBlur in="SourceGraphic" stdDeviation="6" result="blur"/>
      <feColorMatrix in="blur" type="matrix"
        values="1 0 0 0 0
                0 1 0 0 0
                0 0 1 0 0
                0 0 0 0.55 0" result="glow"/>
      <feMerge>
        <feMergeNode in="glow"/>
        <feMergeNode in="SourceGraphic"/>
      </feMerge>
    </filter>
  </defs>

  <rect width="1200" height="675" rx="24" fill="url(#bg)"/>
  <rect width="1200" height="675" rx="24" fill="url(#grid)"/>
  <rect width="1200" height="675" rx="24" fill="url(#glowCyan)"/>
  <rect width="1200" height="675" rx="24" fill="url(#glowBlue)"/>

  <g opacity="0.92">
    <text x="64" y="76" fill="rgba(229,229,229,0.92)" font-family="ui-monospace, SFMono-Regular, Menlo, Monaco, Consolas, monospace" font-size="18" letter-spacing="3">
      DATA COLLECTION
    </text>
    <text x="64" y="104" fill="rgba(153,153,153,0.92)" font-family="system-ui, -apple-system, Segoe UI, Roboto, Helvetica, Arial" font-size="16">
      Multi-source Access · High-frequency Sampling · Edge Buffer · Stable Uplink
    </text>
  </g>

  <!-- Data stream -->
  <g stroke-linecap="round" stroke-linejoin="round" opacity="0.95">
    <path d="M240 360C360 280 440 260 560 300C700 350 820 360 1040 300" stroke="rgba(100,255,218,0.55)" stroke-width="3"/>
    <path d="M240 360C360 280 440 260 560 300C700 350 820 360 1040 300" stroke="rgba(100,255,218,0.18)" stroke-width="10" filter="url(#softGlow)"/>
  </g>

  <g filter="url(#softGlow)">
    <circle cx="240" cy="360" r="12" fill="#64FFDA"/>
    <circle cx="560" cy="300" r="10" fill="#64FFDA"/>
    <circle cx="1040" cy="300" r="12" fill="#64FFDA"/>
    <circle cx="1040" cy="300" r="22" fill="rgba(100,255,218,0.14)"/>
  </g>

  <!-- Sensors -->
  <g transform="translate(210 220)">
    <rect x="0" y="0" width="180" height="120" rx="18" fill="rgba(255,255,255,0.06)" stroke="rgba(255,255,255,0.14)"/>
    <text x="18" y="40" fill="rgba(229,229,229,0.92)" font-family="system-ui, -apple-system, Segoe UI, Roboto, Helvetica, Arial" font-size="16" font-weight="700">Sensor Access</text>
    <g transform="translate(18 56)" stroke-linecap="round">
      <circle cx="10" cy="12" r="6" fill="#3B82F6"/>
      <path d="M26 12H140" stroke="rgba(255,255,255,0.18)" stroke-width="2"/>
      <circle cx="10" cy="44" r="6" fill="#3B82F6"/>
      <path d="M26 44H140" stroke="rgba(255,255,255,0.18)" stroke-width="2"/>
      <circle cx="10" cy="76" r="6" fill="#3B82F6"/>
      <path d="M26 76H140" stroke="rgba(255,255,255,0.18)" stroke-width="2"/>
    </g>
  </g>

  <!-- Collector device -->
  <g transform="translate(520 380)">
    <rect x="0" y="0" width="160" height="120" rx="18" fill="rgba(255,255,255,0.06)" stroke="rgba(255,255,255,0.14)"/>
    <path d="M26 34H134" stroke="#64FFDA" stroke-width="4" stroke-linecap="round"/>
    <path d="M26 60H90" stroke="rgba(255,255,255,0.18)" stroke-width="3" stroke-linecap="round"/>
    <path d="M26 86H110" stroke="rgba(255,255,255,0.18)" stroke-width="3" stroke-linecap="round"/>
    <circle cx="122" cy="78" r="10" fill="rgba(59,130,246,0.12)" stroke="#3B82F6" stroke-width="2"/>
    <text x="20" y="150" fill="rgba(229,229,229,0.85)" font-family="system-ui, -apple-system, Segoe UI, Roboto, Helvetica, Arial" font-size="14">Collection Terminal/Edge Box</text>
  </g>

  <!-- Uplink -->
  <g transform="translate(930 210)">
    <rect x="0" y="0" width="120" height="84" rx="16" fill="rgba(255,255,255,0.06)" stroke="rgba(255,255,255,0.14)"/>
    <path d="M24 56L44 40L60 50L84 30L96 38" stroke="#3B82F6" stroke-width="3" fill="none" stroke-linecap="round" stroke-linejoin="round"/>
    <path d="M24 24H96" stroke="rgba(255,255,255,0.14)" stroke-width="2" stroke-linecap="round"/>
    <text x="16" y="112" fill="rgba(229,229,229,0.85)" font-family="system-ui, -apple-system, Segoe UI, Roboto, Helvetica, Arial" font-size="14">Uplink/Quality</text>
  </g>

  <g font-family="ui-monospace, SFMono-Regular, Menlo, Monaco, Consolas, monospace" font-size="13">
    <g transform="translate(640 140)">
      <rect x="0" y="0" width="166" height="34" rx="999" fill="rgba(100,255,218,0.10)" stroke="rgba(100,255,218,0.35)"/>
      <text x="16" y="22" fill="rgba(229,229,229,0.92)">High Frequency</text>
    </g>
    <g transform="translate(818 140)">
      <rect x="0" y="0" width="148" height="34" rx="999" fill="rgba(59,130,246,0.10)" stroke="rgba(59,130,246,0.35)"/>
      <text x="16" y="22" fill="rgba(229,229,229,0.92)">Edge Buffer</text>
    </g>
    <g transform="translate(978 140)">
      <rect x="0" y="0" width="158" height="34" rx="999" fill="rgba(255,255,255,0.06)" stroke="rgba(255,255,255,0.16)"/>
      <text x="16" y="22" fill="rgba(229,229,229,0.92)">Stable Uplink</text>
    </g>
  </g>

  <g opacity="0.92">
    <rect x="64" y="560" width="330" height="52" rx="14" fill="rgba(255,255,255,0.05)" stroke="rgba(255,255,255,0.14)"/>
    <text x="86" y="592" fill="rgba(229,229,229,0.92)" font-family="system-ui, -apple-system, Segoe UI, Roboto, Helvetica, Arial" font-size="16" font-weight="700">
      Access-Collection-Uplink-Quality
    </text>
  </g>
</svg>
