<?xml version="1.0" encoding="UTF-8"?>
<svg width="1200" height="675" viewBox="0 0 1200 675" fill="none" xmlns="http://www.w3.org/2000/svg" role="img" aria-labelledby="title desc">
  <title id="title">运维管理平台配图</title>
  <desc id="desc">深蓝科技风插画：资产台账、工单巡检、健康度与告警闭环的运维平台示意</desc>

  <defs>
    <linearGradient id="bg" x1="0" y1="0" x2="1200" y2="675" gradientUnits="userSpaceOnUse">
      <stop offset="0" stop-color="#1A1F3A"/>
      <stop offset="1" stop-color="#252B4A"/>
    </linearGradient>
    <pattern id="grid" width="48" height="48" patternUnits="userSpaceOnUse">
      <path d="M48 0H0V48" stroke="rgba(255,255,255,0.06)" stroke-width="1"/>
    </pattern>
    <radialGradient id="glowCyan" cx="0" cy="0" r="1" gradientUnits="userSpaceOnUse" gradientTransform="translate(340 280) rotate(90) scale(320 380)">
      <stop stop-color="rgba(100,255,218,0.16)"/>
      <stop offset="1" stop-color="rgba(100,255,218,0)"/>
    </radialGradient>
    <radialGradient id="glowBlue" cx="0" cy="0" r="1" gradientUnits="userSpaceOnUse" gradientTransform="translate(900 360) rotate(90) scale(320 420)">
      <stop stop-color="rgba(59,130,246,0.18)"/>
      <stop offset="1" stop-color="rgba(59,130,246,0)"/>
    </radialGradient>
    <filter id="softGlow" x="-30%" y="-30%" width="160%" height="160%">
      <feGaussianBlur in="SourceGraphic" stdDeviation="6" result="blur"/>
      <feColorMatrix in="blur" type="matrix"
        values="1 0 0 0 0
                0 1 0 0 0
                0 0 1 0 0
                0 0 0 0.55 0" result="glow"/>
      <feMerge>
        <feMergeNode in="glow"/>
        <feMergeNode in="SourceGraphic"/>
      </feMerge>
    </filter>
  </defs>

  <rect width="1200" height="675" rx="24" fill="url(#bg)"/>
  <rect width="1200" height="675" rx="24" fill="url(#grid)"/>
  <rect width="1200" height="675" rx="24" fill="url(#glowCyan)"/>
  <rect width="1200" height="675" rx="24" fill="url(#glowBlue)"/>

  <g opacity="0.92">
    <text x="64" y="76" fill="rgba(229,229,229,0.92)" font-family="ui-monospace, SFMono-Regular, Menlo, Monaco, Consolas, monospace" font-size="18" letter-spacing="3">
      O&amp;M PLATFORM
    </text>
    <text x="64" y="104" fill="rgba(153,153,153,0.92)" font-family="system-ui, -apple-system, Segoe UI, Roboto, Helvetica, Arial" font-size="16">
      台账 · 巡检 · 工单 · 健康度
    </text>
  </g>

  <!-- Dashboard -->
  <g transform="translate(280 210)" filter="url(#softGlow)">
    <rect x="0" y="0" width="640" height="320" rx="22" fill="rgba(255,255,255,0.06)" stroke="rgba(255,255,255,0.14)"/>
    <path d="M24 56H616" stroke="rgba(255,255,255,0.12)" stroke-width="2" stroke-linecap="round"/>
    <circle cx="36" cy="32" r="6" fill="#3B82F6"/>
    <circle cx="58" cy="32" r="6" fill="#64FFDA"/>
    <circle cx="80" cy="32" r="6" fill="#3B82F6"/>

    <!-- cards -->
    <rect x="24" y="82" width="190" height="110" rx="16" fill="rgba(59,130,246,0.10)" stroke="rgba(255,255,255,0.14)"/>
    <rect x="234" y="82" width="190" height="110" rx="16" fill="rgba(100,255,218,0.08)" stroke="rgba(255,255,255,0.14)"/>
    <rect x="444" y="82" width="172" height="110" rx="16" fill="rgba(255,255,255,0.05)" stroke="rgba(255,255,255,0.14)"/>

    <!-- chart -->
    <path d="M60 290L110 250L160 265L210 225" stroke="#3B82F6" stroke-width="4" fill="none" stroke-linecap="round" stroke-linejoin="round"/>
    <path d="M260 290H600" stroke="rgba(255,255,255,0.12)" stroke-width="3" stroke-linecap="round"/>
    <path d="M260 270H540" stroke="rgba(255,255,255,0.10)" stroke-width="3" stroke-linecap="round"/>
    <path d="M260 250H500" stroke="rgba(255,255,255,0.08)" stroke-width="3" stroke-linecap="round"/>
  </g>

  <!-- Wrench / gear -->
  <g transform="translate(950 210)" filter="url(#softGlow)">
    <rect x="0" y="0" width="190" height="140" rx="18" fill="rgba(255,255,255,0.06)" stroke="rgba(255,255,255,0.14)"/>
    <path d="M120 44C114 50 104 52 96 46C88 40 88 30 96 24C104 18 114 20 120 26L108 38L120 50C124 54 126 60 124 66L114 56C110 52 104 52 100 56L72 84C68 88 68 94 72 98L64 106C54 96 54 80 64 70L92 42C96 38 96 32 92 28L82 18C96 12 112 18 120 26" fill="rgba(100,255,218,0.14)" stroke="#64FFDA" stroke-width="2"/>
    <circle cx="56" cy="54" r="10" fill="rgba(59,130,246,0.16)" stroke="#3B82F6" stroke-width="2"/>
  </g>

  <g font-family="ui-monospace, SFMono-Regular, Menlo, Monaco, Consolas, monospace" font-size="13">
    <g transform="translate(640 140)">
      <rect x="0" y="0" width="152" height="34" rx="999" fill="rgba(100,255,218,0.10)" stroke="rgba(100,255,218,0.35)"/>
      <text x="16" y="22" fill="rgba(229,229,229,0.92)">Work Orders</text>
    </g>
    <g transform="translate(804 140)">
      <rect x="0" y="0" width="152" height="34" rx="999" fill="rgba(59,130,246,0.10)" stroke="rgba(59,130,246,0.35)"/>
      <text x="16" y="22" fill="rgba(229,229,229,0.92)">Asset Ledger</text>
    </g>
    <g transform="translate(968 140)">
      <rect x="0" y="0" width="168" height="34" rx="999" fill="rgba(255,255,255,0.06)" stroke="rgba(255,255,255,0.16)"/>
      <text x="16" y="22" fill="rgba(229,229,229,0.92)">Health Index</text>
    </g>
  </g>

  <g opacity="0.92">
    <rect x="64" y="560" width="340" height="52" rx="14" fill="rgba(255,255,255,0.05)" stroke="rgba(255,255,255,0.14)"/>
    <text x="86" y="592" fill="rgba(229,229,229,0.92)" font-family="system-ui, -apple-system, Segoe UI, Roboto, Helvetica, Arial" font-size="16" font-weight="700">
      一张图看懂运维“台账-工单-闭环”
    </text>
  </g>
</svg>

