<?xml version="1.0" encoding="UTF-8"?>
<svg width="1200" height="675" viewBox="0 0 1200 675" fill="none" xmlns="http://www.w3.org/2000/svg" role="img" aria-labelledby="title desc">
  <title id="title">感知中台配图</title>
  <desc id="desc">深蓝科技风插画：多源数据接入、统一治理与实时洞察的感知中台示意</desc>

  <defs>
    <linearGradient id="bg" x1="0" y1="0" x2="1200" y2="675" gradientUnits="userSpaceOnUse">
      <stop offset="0" stop-color="#1A1F3A"/>
      <stop offset="1" stop-color="#252B4A"/>
    </linearGradient>
    <pattern id="grid" width="48" height="48" patternUnits="userSpaceOnUse">
      <path d="M48 0H0V48" stroke="rgba(255,255,255,0.06)" stroke-width="1"/>
    </pattern>
    <radialGradient id="glowCyan" cx="0" cy="0" r="1" gradientUnits="userSpaceOnUse" gradientTransform="translate(320 320) rotate(90) scale(320 380)">
      <stop stop-color="rgba(100,255,218,0.16)"/>
      <stop offset="1" stop-color="rgba(100,255,218,0)"/>
    </radialGradient>
    <radialGradient id="glowBlue" cx="0" cy="0" r="1" gradientUnits="userSpaceOnUse" gradientTransform="translate(900 260) rotate(90) scale(320 420)">
      <stop stop-color="rgba(59,130,246,0.18)"/>
      <stop offset="1" stop-color="rgba(59,130,246,0)"/>
    </radialGradient>
    <filter id="softGlow" x="-30%" y="-30%" width="160%" height="160%">
      <feGaussianBlur in="SourceGraphic" stdDeviation="6" result="blur"/>
      <feColorMatrix in="blur" type="matrix"
        values="1 0 0 0 0
                0 1 0 0 0
                0 0 1 0 0
                0 0 0 0.55 0" result="glow"/>
      <feMerge>
        <feMergeNode in="glow"/>
        <feMergeNode in="SourceGraphic"/>
      </feMerge>
    </filter>
  </defs>

  <rect width="1200" height="675" rx="24" fill="url(#bg)"/>
  <rect width="1200" height="675" rx="24" fill="url(#grid)"/>
  <rect width="1200" height="675" rx="24" fill="url(#glowCyan)"/>
  <rect width="1200" height="675" rx="24" fill="url(#glowBlue)"/>

  <g opacity="0.92">
    <text x="64" y="76" fill="rgba(229,229,229,0.92)" font-family="ui-monospace, SFMono-Regular, Menlo, Monaco, Consolas, monospace" font-size="18" letter-spacing="3">
      SENSING PLATFORM
    </text>
    <text x="64" y="104" fill="rgba(153,153,153,0.92)" font-family="system-ui, -apple-system, Segoe UI, Roboto, Helvetica, Arial" font-size="16">
      统一接入 · 数据治理 · 实时洞察 · 应用赋能
    </text>
  </g>

  <!-- Radar / eye -->
  <g transform="translate(600 330)" filter="url(#softGlow)">
    <circle cx="0" cy="0" r="150" stroke="rgba(100,255,218,0.25)" stroke-width="2"/>
    <circle cx="0" cy="0" r="110" stroke="rgba(59,130,246,0.22)" stroke-width="2"/>
    <circle cx="0" cy="0" r="70" stroke="rgba(255,255,255,0.12)" stroke-width="2"/>
    <path d="M-170 0C-110 -80 -40 -120 0 -120C40 -120 110 -80 170 0C110 80 40 120 0 120C-40 120 -110 80 -170 0Z" fill="rgba(255,255,255,0.04)" stroke="rgba(255,255,255,0.14)" stroke-width="2"/>
    <circle cx="0" cy="0" r="34" fill="#64FFDA"/>
    <circle cx="0" cy="0" r="60" fill="rgba(100,255,218,0.12)"/>
    <path d="M0 0L90 -40" stroke="#3B82F6" stroke-width="3" stroke-linecap="round"/>
    <circle cx="90" cy="-40" r="6" fill="#3B82F6"/>
  </g>

  <!-- Ingress nodes -->
  <g stroke-linecap="round" stroke-linejoin="round" opacity="0.95">
    <path d="M220 220C330 260 420 290 460 320" stroke="rgba(59,130,246,0.55)" stroke-width="2.5"/>
    <path d="M220 420C330 390 420 360 460 340" stroke="rgba(59,130,246,0.55)" stroke-width="2.5"/>
    <path d="M980 220C870 260 780 290 740 320" stroke="rgba(100,255,218,0.55)" stroke-width="2.5"/>
    <path d="M980 420C870 390 780 360 740 340" stroke="rgba(100,255,218,0.55)" stroke-width="2.5"/>
  </g>

  <g filter="url(#softGlow)">
    <circle cx="220" cy="220" r="10" fill="#3B82F6"/>
    <circle cx="220" cy="420" r="10" fill="#3B82F6"/>
    <circle cx="980" cy="220" r="10" fill="#64FFDA"/>
    <circle cx="980" cy="420" r="10" fill="#64FFDA"/>
  </g>

  <!-- Cards -->
  <g transform="translate(160 500)">
    <rect x="0" y="0" width="220" height="84" rx="16" fill="rgba(255,255,255,0.06)" stroke="rgba(255,255,255,0.14)"/>
    <text x="18" y="34" fill="rgba(229,229,229,0.92)" font-family="system-ui, -apple-system, Segoe UI, Roboto, Helvetica, Arial" font-size="16" font-weight="700">统一接入</text>
    <text x="18" y="60" fill="rgba(153,153,153,0.92)" font-family="system-ui, -apple-system, Segoe UI, Roboto, Helvetica, Arial" font-size="14">多协议/多源数据</text>
  </g>
  <g transform="translate(420 500)">
    <rect x="0" y="0" width="220" height="84" rx="16" fill="rgba(255,255,255,0.06)" stroke="rgba(255,255,255,0.14)"/>
    <text x="18" y="34" fill="rgba(229,229,229,0.92)" font-family="system-ui, -apple-system, Segoe UI, Roboto, Helvetica, Arial" font-size="16" font-weight="700">治理编排</text>
    <text x="18" y="60" fill="rgba(153,153,153,0.92)" font-family="system-ui, -apple-system, Segoe UI, Roboto, Helvetica, Arial" font-size="14">清洗/规则/标签</text>
  </g>
  <g transform="translate(680 500)">
    <rect x="0" y="0" width="220" height="84" rx="16" fill="rgba(255,255,255,0.06)" stroke="rgba(255,255,255,0.14)"/>
    <text x="18" y="34" fill="rgba(229,229,229,0.92)" font-family="system-ui, -apple-system, Segoe UI, Roboto, Helvetica, Arial" font-size="16" font-weight="700">实时洞察</text>
    <text x="18" y="60" fill="rgba(153,153,153,0.92)" font-family="system-ui, -apple-system, Segoe UI, Roboto, Helvetica, Arial" font-size="14">告警/趋势/画像</text>
  </g>

  <!-- KPI pills -->
  <g font-family="ui-monospace, SFMono-Regular, Menlo, Monaco, Consolas, monospace" font-size="13">
    <g transform="translate(640 140)">
      <rect x="0" y="0" width="156" height="34" rx="999" fill="rgba(100,255,218,0.10)" stroke="rgba(100,255,218,0.35)"/>
      <text x="16" y="22" fill="rgba(229,229,229,0.92)">Streaming-ready</text>
    </g>
    <g transform="translate(808 140)">
      <rect x="0" y="0" width="150" height="34" rx="999" fill="rgba(59,130,246,0.10)" stroke="rgba(59,130,246,0.35)"/>
      <text x="16" y="22" fill="rgba(229,229,229,0.92)">Unified Model</text>
    </g>
    <g transform="translate(970 140)">
      <rect x="0" y="0" width="166" height="34" rx="999" fill="rgba(255,255,255,0.06)" stroke="rgba(255,255,255,0.16)"/>
      <text x="16" y="22" fill="rgba(229,229,229,0.92)">App Enablement</text>
    </g>
  </g>

  <g opacity="0.92">
    <rect x="64" y="560" width="330" height="52" rx="14" fill="rgba(255,255,255,0.05)" stroke="rgba(255,255,255,0.14)"/>
    <text x="86" y="592" fill="rgba(229,229,229,0.92)" font-family="system-ui, -apple-system, Segoe UI, Roboto, Helvetica, Arial" font-size="16" font-weight="700">
      一张图看懂“接入-治理-洞察-赋能”
    </text>
  </g>
</svg>

