<?xml version="1.0" encoding="UTF-8"?>
<svg width="1200" height="675" viewBox="0 0 1200 675" fill="none" xmlns="http://www.w3.org/2000/svg" role="img" aria-labelledby="title desc">
  <title id="title">智能网关设备配图</title>
  <desc id="desc">深蓝科技风插画：协议转换、边缘计算与安全接入的智能网关示意</desc>

  <defs>
    <linearGradient id="bg" x1="0" y1="0" x2="1200" y2="675" gradientUnits="userSpaceOnUse">
      <stop offset="0" stop-color="#1A1F3A"/>
      <stop offset="1" stop-color="#252B4A"/>
    </linearGradient>
    <pattern id="grid" width="48" height="48" patternUnits="userSpaceOnUse">
      <path d="M48 0H0V48" stroke="rgba(255,255,255,0.06)" stroke-width="1"/>
    </pattern>
    <radialGradient id="glowCyan" cx="0" cy="0" r="1" gradientUnits="userSpaceOnUse" gradientTransform="translate(360 320) rotate(90) scale(320 380)">
      <stop stop-color="rgba(100,255,218,0.16)"/>
      <stop offset="1" stop-color="rgba(100,255,218,0)"/>
    </radialGradient>
    <radialGradient id="glowBlue" cx="0" cy="0" r="1" gradientUnits="userSpaceOnUse" gradientTransform="translate(860 280) rotate(90) scale(320 420)">
      <stop stop-color="rgba(59,130,246,0.18)"/>
      <stop offset="1" stop-color="rgba(59,130,246,0)"/>
    </radialGradient>
    <filter id="softGlow" x="-30%" y="-30%" width="160%" height="160%">
      <feGaussianBlur in="SourceGraphic" stdDeviation="6" result="blur"/>
      <feColorMatrix in="blur" type="matrix"
        values="1 0 0 0 0
                0 1 0 0 0
                0 0 1 0 0
                0 0 0 0.55 0" result="glow"/>
      <feMerge>
        <feMergeNode in="glow"/>
        <feMergeNode in="SourceGraphic"/>
      </feMerge>
    </filter>
  </defs>

  <rect width="1200" height="675" rx="24" fill="url(#bg)"/>
  <rect width="1200" height="675" rx="24" fill="url(#grid)"/>
  <rect width="1200" height="675" rx="24" fill="url(#glowCyan)"/>
  <rect width="1200" height="675" rx="24" fill="url(#glowBlue)"/>

  <g opacity="0.92">
    <text x="64" y="76" fill="rgba(229,229,229,0.92)" font-family="ui-monospace, SFMono-Regular, Menlo, Monaco, Consolas, monospace" font-size="18" letter-spacing="3">
      SMART GATEWAY
    </text>
    <text x="64" y="104" fill="rgba(153,153,153,0.92)" font-family="system-ui, -apple-system, Segoe UI, Roboto, Helvetica, Arial" font-size="16">
      协议适配 · 边缘计算 · 安全接入 · 本地缓存
    </text>
  </g>

  <!-- Gateway hub -->
  <g transform="translate(600 320)" filter="url(#softGlow)">
    <rect x="-110" y="-80" width="220" height="160" rx="22" fill="rgba(255,255,255,0.06)" stroke="rgba(255,255,255,0.14)"/>
    <path d="M-70 -20H70" stroke="#64FFDA" stroke-width="4" stroke-linecap="round"/>
    <path d="M-70 10H30" stroke="rgba(255,255,255,0.18)" stroke-width="3" stroke-linecap="round"/>
    <path d="M-70 40H50" stroke="rgba(255,255,255,0.18)" stroke-width="3" stroke-linecap="round"/>
    <circle cx="-70" cy="-45" r="6" fill="#3B82F6"/>
    <circle cx="-48" cy="-45" r="6" fill="#64FFDA"/>
    <circle cx="-26" cy="-45" r="6" fill="#3B82F6"/>
    <path d="M60 56C82 44 96 26 100 4" stroke="rgba(59,130,246,0.55)" stroke-width="3" stroke-linecap="round"/>
  </g>

  <!-- In/out nodes -->
  <g stroke-linecap="round" stroke-linejoin="round" opacity="0.95">
    <path d="M220 220C340 250 430 280 490 300" stroke="rgba(59,130,246,0.55)" stroke-width="2.5"/>
    <path d="M220 420C340 390 430 360 490 340" stroke="rgba(59,130,246,0.55)" stroke-width="2.5"/>
    <path d="M980 240C860 270 770 290 710 305" stroke="rgba(100,255,218,0.55)" stroke-width="2.5"/>
    <path d="M980 420C860 390 770 360 710 335" stroke="rgba(100,255,218,0.55)" stroke-width="2.5"/>
  </g>

  <g filter="url(#softGlow)">
    <circle cx="220" cy="220" r="10" fill="#3B82F6"/>
    <circle cx="220" cy="420" r="10" fill="#3B82F6"/>
    <circle cx="980" cy="240" r="10" fill="#64FFDA"/>
    <circle cx="980" cy="420" r="10" fill="#64FFDA"/>
  </g>

  <!-- Tags -->
  <g transform="translate(180 500)">
    <rect x="0" y="0" width="240" height="84" rx="16" fill="rgba(255,255,255,0.06)" stroke="rgba(255,255,255,0.14)"/>
    <text x="18" y="34" fill="rgba(229,229,229,0.92)" font-family="system-ui, -apple-system, Segoe UI, Roboto, Helvetica, Arial" font-size="16" font-weight="700">协议转换</text>
    <text x="18" y="60" fill="rgba(153,153,153,0.92)" font-family="system-ui, -apple-system, Segoe UI, Roboto, Helvetica, Arial" font-size="14">IEC104 / Modbus / MQTT</text>
  </g>
  <g transform="translate(450 500)">
    <rect x="0" y="0" width="240" height="84" rx="16" fill="rgba(255,255,255,0.06)" stroke="rgba(255,255,255,0.14)"/>
    <text x="18" y="34" fill="rgba(229,229,229,0.92)" font-family="system-ui, -apple-system, Segoe UI, Roboto, Helvetica, Arial" font-size="16" font-weight="700">边缘计算</text>
    <text x="18" y="60" fill="rgba(153,153,153,0.92)" font-family="system-ui, -apple-system, Segoe UI, Roboto, Helvetica, Arial" font-size="14">过滤/聚合/规则</text>
  </g>
  <g transform="translate(720 500)">
    <rect x="0" y="0" width="240" height="84" rx="16" fill="rgba(255,255,255,0.06)" stroke="rgba(255,255,255,0.14)"/>
    <text x="18" y="34" fill="rgba(229,229,229,0.92)" font-family="system-ui, -apple-system, Segoe UI, Roboto, Helvetica, Arial" font-size="16" font-weight="700">安全接入</text>
    <text x="18" y="60" fill="rgba(153,153,153,0.92)" font-family="system-ui, -apple-system, Segoe UI, Roboto, Helvetica, Arial" font-size="14">认证/加密/白名单</text>
  </g>

  <g font-family="ui-monospace, SFMono-Regular, Menlo, Monaco, Consolas, monospace" font-size="13">
    <g transform="translate(640 140)">
      <rect x="0" y="0" width="150" height="34" rx="999" fill="rgba(100,255,218,0.10)" stroke="rgba(100,255,218,0.35)"/>
      <text x="16" y="22" fill="rgba(229,229,229,0.92)">Edge-first</text>
    </g>
    <g transform="translate(802 140)">
      <rect x="0" y="0" width="146" height="34" rx="999" fill="rgba(59,130,246,0.10)" stroke="rgba(59,130,246,0.35)"/>
      <text x="16" y="22" fill="rgba(229,229,229,0.92)">Low Latency</text>
    </g>
    <g transform="translate(960 140)">
      <rect x="0" y="0" width="176" height="34" rx="999" fill="rgba(255,255,255,0.06)" stroke="rgba(255,255,255,0.16)"/>
      <text x="16" y="22" fill="rgba(229,229,229,0.92)">Secure Access</text>
    </g>
  </g>

  <g opacity="0.92">
    <rect x="64" y="560" width="330" height="52" rx="14" fill="rgba(255,255,255,0.05)" stroke="rgba(255,255,255,0.14)"/>
    <text x="86" y="592" fill="rgba(229,229,229,0.92)" font-family="system-ui, -apple-system, Segoe UI, Roboto, Helvetica, Arial" font-size="16" font-weight="700">
      一张图看懂网关“接入-计算-安全”
    </text>
  </g>
</svg>

