<?xml version="1.0" encoding="UTF-8"?>
<svg width="1200" height="675" viewBox="0 0 1200 675" fill="none" xmlns="http://www.w3.org/2000/svg" role="img" aria-labelledby="title desc">
  <title id="title">三遥系统配图</title>
  <desc id="desc">深蓝科技风插画：遥测、遥信、遥控一体化，远程通信与边缘控制的可视化示意</desc>

  <defs>
    <linearGradient id="bg" x1="0" y1="0" x2="1200" y2="675" gradientUnits="userSpaceOnUse">
      <stop offset="0" stop-color="#1A1F3A"/>
      <stop offset="1" stop-color="#252B4A"/>
    </linearGradient>
    <pattern id="grid" width="48" height="48" patternUnits="userSpaceOnUse">
      <path d="M48 0H0V48" stroke="rgba(255,255,255,0.06)" stroke-width="1"/>
    </pattern>
    <radialGradient id="glowCyan" cx="0" cy="0" r="1" gradientUnits="userSpaceOnUse" gradientTransform="translate(360 260) rotate(90) scale(300 360)">
      <stop stop-color="rgba(100,255,218,0.16)"/>
      <stop offset="1" stop-color="rgba(100,255,218,0)"/>
    </radialGradient>
    <radialGradient id="glowBlue" cx="0" cy="0" r="1" gradientUnits="userSpaceOnUse" gradientTransform="translate(860 360) rotate(90) scale(320 400)">
      <stop stop-color="rgba(59,130,246,0.18)"/>
      <stop offset="1" stop-color="rgba(59,130,246,0)"/>
    </radialGradient>
    <filter id="softGlow" x="-30%" y="-30%" width="160%" height="160%">
      <feGaussianBlur in="SourceGraphic" stdDeviation="6" result="blur"/>
      <feColorMatrix in="blur" type="matrix"
        values="1 0 0 0 0
                0 1 0 0 0
                0 0 1 0 0
                0 0 0 0.55 0" result="glow"/>
      <feMerge>
        <feMergeNode in="glow"/>
        <feMergeNode in="SourceGraphic"/>
      </feMerge>
    </filter>
  </defs>

  <rect width="1200" height="675" rx="24" fill="url(#bg)"/>
  <rect width="1200" height="675" rx="24" fill="url(#grid)"/>
  <rect width="1200" height="675" rx="24" fill="url(#glowCyan)"/>
  <rect width="1200" height="675" rx="24" fill="url(#glowBlue)"/>

  <g opacity="0.92">
    <text x="64" y="76" fill="rgba(229,229,229,0.92)" font-family="ui-monospace, SFMono-Regular, Menlo, Monaco, Consolas, monospace" font-size="18" letter-spacing="3">
      THREE-REMOTE SYSTEM
    </text>
    <text x="64" y="104" fill="rgba(153,153,153,0.92)" font-family="system-ui, -apple-system, Segoe UI, Roboto, Helvetica, Arial" font-size="16">
      遥测 · 遥信 · 遥控 · 远程联动
    </text>
  </g>

  <!-- Link + radio waves -->
  <g stroke-linecap="round" stroke-linejoin="round" opacity="0.95" filter="url(#softGlow)">
    <path d="M260 320C420 220 560 210 680 270C820 340 930 350 1040 300" stroke="rgba(100,255,218,0.55)" stroke-width="3"/>
    <path d="M260 320C420 220 560 210 680 270C820 340 930 350 1040 300" stroke="rgba(100,255,218,0.18)" stroke-width="10"/>

    <circle cx="260" cy="320" r="12" fill="#64FFDA"/>
    <circle cx="1040" cy="300" r="12" fill="#64FFDA"/>
    <circle cx="1040" cy="300" r="22" fill="rgba(100,255,218,0.14)"/>

    <path d="M1040 260C1066 270 1086 290 1092 316" stroke="rgba(59,130,246,0.55)" stroke-width="3"/>
    <path d="M1040 240C1082 255 1114 289 1122 330" stroke="rgba(59,130,246,0.35)" stroke-width="3"/>
    <path d="M1040 220C1098 241 1140 288 1150 346" stroke="rgba(59,130,246,0.22)" stroke-width="3"/>
  </g>

  <!-- Terminal device -->
  <g transform="translate(270 380)">
    <rect x="0" y="0" width="140" height="120" rx="18" fill="rgba(255,255,255,0.06)" stroke="rgba(255,255,255,0.14)"/>
    <rect x="20" y="22" width="100" height="56" rx="12" fill="rgba(59,130,246,0.10)" stroke="#3B82F6" stroke-width="2"/>
    <path d="M34 52H106" stroke="rgba(255,255,255,0.18)" stroke-width="2" stroke-linecap="round"/>
    <path d="M34 40H86" stroke="rgba(255,255,255,0.18)" stroke-width="2" stroke-linecap="round"/>
    <circle cx="40" cy="92" r="5" fill="#64FFDA"/>
    <circle cx="60" cy="92" r="5" fill="#64FFDA"/>
    <circle cx="80" cy="92" r="5" fill="#64FFDA"/>
    <path d="M110 92H120" stroke="#64FFDA" stroke-width="3" stroke-linecap="round"/>
    <text x="8" y="150" fill="rgba(229,229,229,0.85)" font-family="system-ui, -apple-system, Segoe UI, Roboto, Helvetica, Arial" font-size="14">站所终端/RTU</text>
  </g>

  <!-- Telemetry / status / control chips -->
  <g font-family="ui-monospace, SFMono-Regular, Menlo, Monaco, Consolas, monospace" font-size="13">
    <g transform="translate(640 140)">
      <rect x="0" y="0" width="132" height="34" rx="999" fill="rgba(100,255,218,0.10)" stroke="rgba(100,255,218,0.35)"/>
      <text x="16" y="22" fill="rgba(229,229,229,0.92)">Telemetry</text>
    </g>
    <g transform="translate(784 140)">
      <rect x="0" y="0" width="120" height="34" rx="999" fill="rgba(59,130,246,0.10)" stroke="rgba(59,130,246,0.35)"/>
      <text x="16" y="22" fill="rgba(229,229,229,0.92)">Status</text>
    </g>
    <g transform="translate(916 140)">
      <rect x="0" y="0" width="124" height="34" rx="999" fill="rgba(255,255,255,0.06)" stroke="rgba(255,255,255,0.16)"/>
      <text x="16" y="22" fill="rgba(229,229,229,0.92)">Control</text>
    </g>
  </g>

  <g opacity="0.92">
    <rect x="64" y="560" width="360" height="52" rx="14" fill="rgba(255,255,255,0.05)" stroke="rgba(255,255,255,0.14)"/>
    <text x="86" y="592" fill="rgba(229,229,229,0.92)" font-family="system-ui, -apple-system, Segoe UI, Roboto, Helvetica, Arial" font-size="16" font-weight="700">
      一张图看懂“三遥”远程通信与联动控制
    </text>
  </g>
</svg>

